<?xml version="1.0" encoding="utf-8"?>
<!-- Generator: Adobe Illustrator 25.0.0, SVG Export Plug-In . SVG Version: 6.00 Build 0)  -->
<svg version="1.1" id="Capa_1" xmlns="http://www.w3.org/2000/svg" xmlns:xlink="http://www.w3.org/1999/xlink" x="0px" y="0px"
	 viewBox="0 0 1920 1080" style="enable-background:new 0 0 1920 1080;" xml:space="preserve">
<style type="text/css">
	.st0{fill:#1D1D1B;}
	.st1{fill:#373735;}
</style>
<g>
</g>
<g>
	<path class="st0" d="M829.6,799.01h11.45v3.86h-3.8v27.53h3.8v3.92H829.6v-3.92h3.8v-27.53h-3.8V799.01z"/>
	<path class="st0" d="M863.43,808.98l1.54-1.54c0.39-0.39,0.84-0.58,1.35-0.58h7.98c0.51,0,0.94,0.17,1.29,0.51l3.79,3.73
		c0.39,0.39,0.58,0.84,0.58,1.35v21.68h-3.67v-20.91l-2.77-2.51h-6.43l-2.7,2.7v20.78h-3.86v-21.55c0-0.09,0.09-0.34,0.26-0.77
		l-1.16-1.29h-3.15v-3.8h4.05c0.51,0,0.92,0.19,1.22,0.58L863.43,808.98z"/>
	<path class="st0" d="M912.64,825.19l-4.44,4.44c-0.3,0.39-0.75,0.58-1.35,0.58h-6.11c-0.52,0-0.97-0.19-1.35-0.58l-7.59-7.59
		c-0.39-0.3-0.58-0.75-0.58-1.35v-4.31c0-0.51,0.19-0.96,0.58-1.35l7.78-7.85c0.28-0.34,0.73-0.51,1.35-0.51h9.71
		c0.56,0,1.01,0.17,1.35,0.51l3.92,3.99c0.39,0.3,0.58,0.75,0.58,1.35v23.87c0,0.51-0.19,0.96-0.58,1.35l-3.6,3.6
		c-0.3,0.39-0.75,0.58-1.35,0.58h-10.36c-0.52,0-0.96-0.19-1.35-0.58l-3.73-3.73l2.7-2.7l3.15,3.15h8.81l2.45-2.44V825.19z
		 M912.64,819.79v-6.5l-2.77-2.77h-8.17l-6.63,6.63v2.77l6.43,6.43h4.57L912.64,819.79z"/>
	<path class="st0" d="M929.75,822.56v5.08l2.77,2.89h16.92v3.6h-17.69c-0.51,0-0.94-0.17-1.29-0.51l-3.99-3.86
		c-0.34-0.34-0.51-0.79-0.51-1.35v-15.57c0-0.43,0.21-0.86,0.64-1.29l3.92-4.05c0.47-0.47,0.94-0.71,1.42-0.71h11.64
		c0.43,0,0.88,0.24,1.35,0.71l3.79,3.99c0.39,0.39,0.58,0.82,0.58,1.29v9.78H929.75z M929.82,818.57h15.76v-5.02l-2.77-2.83h-10.16
		l-2.83,2.89V818.57z"/>
	<path class="st0" d="M967.64,808.98l1.54-1.54c0.39-0.39,0.84-0.58,1.35-0.58h7.98c0.51,0,0.94,0.17,1.29,0.51l3.8,3.73
		c0.39,0.39,0.58,0.84,0.58,1.35v21.68h-3.67v-20.91l-2.77-2.51h-6.43l-2.7,2.7v20.78h-3.86v-21.55c0-0.09,0.08-0.34,0.26-0.77
		l-1.16-1.29h-3.15v-3.8h4.05c0.51,0,0.92,0.19,1.22,0.58L967.64,808.98z"/>
	<path class="st0" d="M1007.01,795.02h3.92v3.92h-3.92V795.02z M1007.01,806.79h3.92v27.47h-3.92V806.79z"/>
	<path class="st0" d="M1033.96,822.56v5.08l2.77,2.89h16.92v3.6h-17.69c-0.51,0-0.94-0.17-1.29-0.51l-3.99-3.86
		c-0.34-0.34-0.51-0.79-0.51-1.35v-15.57c0-0.43,0.21-0.86,0.64-1.29l3.92-4.05c0.47-0.47,0.94-0.71,1.42-0.71h11.64
		c0.43,0,0.88,0.24,1.35,0.71l3.79,3.99c0.39,0.39,0.58,0.82,0.58,1.29v9.78H1033.96z M1034.03,818.57h15.76v-5.02l-2.77-2.83
		h-10.16l-2.83,2.89V818.57z"/>
	<path class="st0" d="M1071.91,817.28v16.92h-3.8v-21.48c0-0.49-0.19-0.96-0.58-1.42c-0.45-0.39-0.94-0.58-1.48-0.58h-1.16v-3.92
		h3.15c0.64,0,1.45,0.42,2.41,1.25c0.97,0.84,1.45,1.73,1.45,2.67v1.22l4.44-4.5c0.43-0.43,0.88-0.64,1.35-0.64h4.7
		c0.58,0,1.03,0.19,1.35,0.58l4.05,3.92c0.39,0.39,0.58,0.86,0.58,1.42v1.93h-3.86v-1.16l-2.89-2.77h-3.09L1071.91,817.28z"/>
	<path class="st0" d="M1100.28,811.23l3.92-4.05c0.3-0.3,0.73-0.45,1.29-0.45h12.09c0.51,0,0.99,0.21,1.42,0.64l3.6,4.05
		c0.34,0.34,0.51,0.75,0.51,1.22v15.76c0,0.51-0.19,0.96-0.58,1.35l-3.73,3.8c-0.26,0.3-0.63,0.45-1.13,0.45h-0.22h-11.96
		c-0.45,0-0.88-0.15-1.29-0.45l-3.99-3.73c-0.39-0.34-0.58-0.81-0.58-1.42v-15.89C1099.64,812.09,1099.85,811.66,1100.28,811.23z
		 M1103.5,813.36v14.28l2.77,2.7h10.42l2.57-2.7v-14.28l-2.51-2.83h-10.49L1103.5,813.36z"/>
	<path class="st0" d="M1196.06,803.39l-2.7,2.7l-3.41-3.28h-6.24l-10.55,10.55v6.5l10.61,10.55h6.11l3.34-3.54l2.83,2.7l-3.92,4.12
		c-0.39,0.39-0.86,0.58-1.42,0.58H1183c-0.47,0-0.92-0.21-1.35-0.64l-11.77-11.58c-0.39-0.39-0.58-0.84-0.58-1.35v-8.11
		c0-0.56,0.17-1.01,0.51-1.35l11.77-11.71c0.34-0.34,0.79-0.51,1.35-0.51h7.78c0.6,0,1.05,0.15,1.35,0.45L1196.06,803.39z"/>
	<path class="st0" d="M1215.42,795.02h3.92v3.92h-3.92V795.02z M1215.42,806.79h3.92v27.47h-3.92V806.79z"/>
	<path class="st0" d="M1242.44,812.26l9.71,16.34l9.84-16.53v-5.21h3.86v5.73c0,0.36-0.09,0.69-0.26,0.96l-11.77,19.81
		c-0.39,0.64-0.94,0.96-1.67,0.96c-0.73,0-1.29-0.32-1.67-0.96l-11.64-19.62c-0.17-0.28-0.26-0.6-0.26-0.97v-5.92h3.86V812.26z"/>
	<path class="st0" d="M1284.9,795.02h3.92v3.92h-3.92V795.02z M1284.9,806.79h3.92v27.47h-3.92V806.79z"/>
	<path class="st0" d="M1323.49,829.5l0.84,0.9h3.15v3.86h-3.92c-0.51,0-0.97-0.19-1.35-0.58l-1.99-1.99
		c-0.39-0.39-0.58-0.84-0.58-1.35v-35.32h3.86V829.5z"/>
</g>
<g>
	<g>
		<g>
			<g>
				<g>
					<path class="st1" d="M545,703.35l3.59,1.23c-0.03-0.02-0.27-0.1-0.83-0.3C547.2,704.09,546.32,703.79,545,703.35z"/>
					<path class="st1" d="M730.97,629.53c-0.04,0.29-0.08,0.64-0.11,0.9C730.94,629.79,730.96,629.59,730.97,629.53z"/>
					<path class="st1" d="M691.24,708.32c-0.08,0.02-0.14,0.03-0.2,0.04c-0.31,0.06-0.69,0.14-0.97,0.2L691.24,708.32z"/>
					<path class="st1" d="M503.84,682.88c4.74,4.36,9.62,7.64,14.3,10.27c4.69,2.65,9.18,4.72,13.48,6.5
						c4.34,1.65,8.37,3.33,12.4,4.59c1,0.34,1.99,0.67,2.98,1c0.98,0.34,1.97,0.66,2.97,0.93c1.98,0.57,3.95,1.13,5.92,1.7
						c7.94,2.05,16,3.94,25.43,5.26c9.42,1.37,20.16,2.44,33.4,2.68c25.26,0.52,52.18-2.47,76.33-7.44
						c2.87-0.56,6.25-1.43,9.97-2.25c1.86-0.4,3.77-0.93,5.73-1.43c1.96-0.51,3.98-1.01,5.99-1.56c2.01-0.58,4.03-1.17,6.04-1.76
						c1.01-0.29,2.01-0.59,3-0.88c0.98-0.32,1.96-0.64,2.93-0.96c1.93-0.64,3.82-1.26,5.64-1.86c1.81-0.61,3.52-1.29,5.15-1.89
						l5.07-1.79c2.21-0.92,4.6-1.92,7-2.92c0.6-0.25,1.2-0.49,1.8-0.74c0.59-0.27,1.18-0.53,1.76-0.8c1.16-0.52,2.3-1.04,3.4-1.53
						l-0.27,0.14c1.61-0.77,3.31-1.49,4.92-2.32c1.62-0.83,3.21-1.64,4.7-2.4c3.01-1.47,5.51-2.94,7.05-3.83l-0.25,0.17
						c2.51-1.43,5.05-2.81,7.47-4.41l-1.25,0.82c10.62-6.5,20.95-14.21,29.28-21.87l-0.77,0.55c1.17-0.96,2.19-2,3.19-2.97
						c1-0.98,1.97-1.91,2.9-2.82c0.92-0.92,1.86-1.75,2.66-2.66c0.81-0.9,1.6-1.78,2.36-2.62c1.53-1.7,2.97-3.3,4.36-4.85
						c1.35-1.59,2.53-3.21,3.77-4.77c1.22-1.57,2.44-3.13,3.67-4.71c1.13-1.66,2.28-3.35,3.48-5.12c0.6-0.88,1.22-1.79,1.85-2.71
						c0.32-0.46,0.64-0.93,0.96-1.41c0.32-0.48,0.6-1,0.91-1.5c1.21-2.04,2.5-4.22,3.9-6.56l-0.13,0.27
						c0.43-0.75,0.86-1.48,1.27-2.21c0.37-0.75,0.74-1.49,1.11-2.23c0.73-1.47,1.45-2.9,2.15-4.3c0.69-1.41,1.42-2.76,2.04-4.13
						c0.6-1.38,1.18-2.74,1.76-4.08c0.58-1.34,1.15-2.65,1.71-3.95c0.28-0.65,0.56-1.3,0.84-1.94c0.24-0.66,0.48-1.32,0.72-1.97
						c0.96-2.61,1.9-5.19,2.85-7.78c3.4-10.46,6.35-21.22,8.38-35.29c-0.21,1.76-0.18,1.38-0.04,0.61c0.11-0.78,0.26-1.96,0.25-1.82
						c0.39-3.25,0.78-6.55,1.15-9.69c0.2-3.15,0.4-6.12,0.56-8.7c0.21-2.57,0.16-4.75,0.17-6.29c0-1.54-0.02-2.46-0.07-2.51
						c0.04-2.38,0.06-4.06,0.08-5.25c-0.03-1.19-0.05-1.9-0.07-2.36c-0.01-0.9,0.02-0.77,0.03-1.39c-0.01,0.01-0.02-0.12-0.04-0.35
						c-0.01-0.24-0.04-0.59-0.06-1.02c-0.04-0.89-0.1-2.15-0.18-3.64c-0.03-0.75-0.07-1.55-0.11-2.4c-0.05-0.85-0.16-1.73-0.24-2.64
						c-0.17-1.81-0.35-3.72-0.53-5.57l0.35,3.41c-0.35-3.54-0.59-7.09-1.2-10.59l-0.79-5.27c-0.14-0.88-0.25-1.76-0.41-2.63
						l-0.53-2.61c0.22,1.38,0.5,2.75,0.62,4.14c-0.18-1.4-0.43-2.48-0.59-3.34c-0.16-0.86-0.28-1.48-0.37-1.96
						c-0.18-0.95-0.22-1.29-0.27-1.62c-0.12-0.65-0.15-1.25-1.33-6.54l-0.08,0.16c-0.95-3.79-1.8-7.19-2.61-10.38
						c-0.94-3.16-1.82-6.11-2.7-9.05c-0.41-1.48-0.92-2.92-1.43-4.39c-0.51-1.47-1.03-2.95-1.56-4.48c-0.55-1.52-1.03-3.11-1.7-4.71
						c-0.65-1.61-1.32-3.28-2.02-5.03c-0.51-1.24-1.02-2.49-1.53-3.74c-0.49-1.26-1.11-2.46-1.66-3.69
						c-1.14-2.46-2.27-4.92-3.42-7.39c-1.24-2.42-2.49-4.84-3.74-7.27c-0.64-1.21-1.23-2.44-1.91-3.63l-2.03-3.57
						c-5.32-9.59-11.41-18.81-17.85-27.75l-4.91-6.65l-5.14-6.46c-1.68-2.18-3.49-4.25-5.28-6.33l-2.68-3.13
						c-0.88-1.05-1.78-2.08-2.72-3.08c-1.85-2.02-3.7-4.03-5.55-6.03c-1.84-2.01-3.8-3.9-5.69-5.85l-2.85-2.9
						c-0.95-0.96-1.95-1.87-2.93-2.81c-2.19-2.08-4.37-4.15-6.54-6.22c-2.62,20.06-5.16,39.59-7.59,58.22l-0.42,2.54
						c-0.27,1.1-1.88,16.01-2.28,18.2l-0.81,6.75c-0.27,1.89-0.81,5.88-0.4,2.52c-0.81,6.23-0.81,6.39-1.35,10.88l-0.94,6.68
						c-3.16,24.6-5.84,45.5-9.16,71.38c-4.18,31.06-11.59,89.59-15.86,123.31c-5.93,47.41-13.56,102.45-19.61,151
						c-0.1,0.79-0.28,2.2-0.44,3.42c-0.07,0.61-0.14,1.17-0.19,1.57c-0.05,0.4-0.07,0.65-0.07,0.65l-5.75,44.4
						c0,0-1.72,13.46-3.98,31.09c-2.23,17.63-4.88,39.46-6.71,56.19c-1.84,16.73-2.92,28.35-2.49,25.54
						c0.47-2.81,2.32-20.07,7.61-60.95l-0.11,1.1c3.07-24.31,5.09-39.6,7.11-56.38c0.51-2.63,2.6-19.96,3.39-25.64l-0.06,0.54
						c1.78-14.84,4.05-30.52,5.78-44.82c-0.06,0.56-0.05,0.87-0.47,4.16c1.32-10.41,3.12-24.66,3.33-25.42
						c3.19-24.87,7.72-59.57,9.62-75.52l-0.11,1.1c1.07-9.09,1.5-11.75,2.76-21.91c0.08-0.55,0.18-1.27,0.17-1.15
						c1.17-9.91,3.71-28.87,4.7-36.87l0.13-0.51l2.53-19.7l-0.97,7.36c0.15-2.57,2.04-14.88,3.77-29.18
						c1.75-13.36,3.12-27.16,5.01-41.03c0.77-6.63-0.61,5.85,0.6-4.06c0.14-0.31-0.54,4.63-0.13,2.09
						c1.21-9.72,2.16-15.92,3.64-27.92l0.14-0.48c1.88-15.65,3.91-29.49,5.12-39.91c2.02-16.13,1.62-10.78,3.64-27.59l0.94-6.51
						c0.94-7.18,0.54-5.16,1.62-13.12c0,0.49,1.35-10.06,0.81-5.39c2.43-18.02,4.59-36.62,7.82-60.35c0.12-1.05,0.28-2.45,0.45-4
						c1.81,1.71,3.88,3.66,5.72,5.4c2.14,1.97,3.88,3.84,4.92,4.82c0.1,0.12,1.21,1.26,2.66,2.75c0.73,0.74,1.54,1.58,2.35,2.42
						c0.79,0.86,1.58,1.73,2.3,2.52c2.87,3.15,4.54,4.99-0.07,0.05c-0.79-0.85-2.18-2.36-2.07-2.27c-0.38-0.39-0.78-0.75-1.17-1.12
						c4.6,5.03,8.82,9.55,12.8,14.28c1.01,1.17,2.02,2.33,3.03,3.51c0.97,1.21,1.95,2.42,2.94,3.65c1.95,2.48,4.05,4.93,5.99,7.69
						c-0.59-0.81-1.22-1.69-1.82-2.49c-0.62-0.79-1.2-1.52-1.62-2.06c-0.85-1.09-1.12-1.44,0-0.07l1.94,2.46l1.85,2.53l3.71,5.05
						l-1.59-2.06l2.75,3.77l2.61,3.87c1.72,2.59,3.54,5.12,5.13,7.79l-1.29-2.22c2.38,3.89,4,6.53,5.68,9.28
						c1.6,2.81,3.25,5.75,5.85,10.2c1.08,2.06,0.16,0.1-0.61-1.23c-0.76-1.34-1.15-2.17,1.18,2.05c1.39,2.72,2.95,5.78,4.62,9.05
						c1.53,3.34,3.17,6.9,4.85,10.56c1.5,3.73,3.1,7.54,4.58,11.36c0.69,1.93,1.37,3.85,2.04,5.75c0.65,1.91,1.4,3.75,1.93,5.63
						c-0.35-1.42,0.88,2.59,2.16,6.71l0.07,0.5c0.65,1.96,1.04,3.56,1.37,4.85c0.33,1.29,0.57,2.27,0.77,3.04
						c0.39,1.55,0.55,2.29,0.72,3.02c0.15,0.73,0.36,1.45,0.67,3c0.32,1.55,0.8,3.92,1.62,7.94l-0.34-1.41
						c0.33,1.41,0.69,2.81,1,4.22c2.28,14.62,1.26,7.89,2.82,24.25c-0.03-0.81-0.06-1.47-0.08-1.98c-0.04-0.51-0.07-0.87-0.09-1.11
						c-0.03-0.47,0-0.4,0.07,0.12c0.19,1.04,0.26,3.9,0.43,7.9l-0.15-2.02c0.1,2.21,0.17,3.69,0.22,4.98
						c0.02,0.65,0.07,1.25,0.07,1.87c-0.01,0.62-0.02,1.27-0.03,2.01c0-2.64-0.09-1.39-0.17,5.12l-0.03-4.36
						c-0.05,4.1,0.09,8.21-0.25,12.31c-0.18,2.37-0.38,5.09-0.58,7.89c-0.34,2.79-0.7,5.66-1.03,8.37
						c-0.27,2.71-0.79,5.21-1.16,7.28c-0.38,2.08-0.69,3.72-0.88,4.68c0,0-0.06,0.31-0.16,0.87c-0.09,0.56-0.24,1.36-0.49,2.33
						c-0.46,1.93-1.08,4.56-1.74,7.33c-0.58,2.79-1.55,5.63-2.24,8.11c-0.72,2.47-1.32,4.53-1.65,5.67
						c0.58-1.97,0.06-0.26-0.64,1.51c-0.67,1.78-1.38,3.66-0.88,2.14c-1.44,5.11-7.66,19.48-10.8,24.9l0.53-1.06
						c-0.67,1.28-1.28,2.57-1.96,3.78c-0.71,1.2-1.41,2.38-2.1,3.55c-0.69,1.16-1.36,2.31-2.03,3.44c-0.68,1.12-1.28,2.27-2.03,3.31
						c-2.91,4.21-5.47,8.36-8.54,12.06c-1.48,1.88-2.91,3.79-4.43,5.63c-1.59,1.77-3.19,3.55-4.8,5.34c-0.81,0.9-1.62,1.8-2.43,2.7
						c-0.87,0.85-1.75,1.71-2.64,2.58c-0.89,0.86-1.79,1.74-2.7,2.62c-0.91,0.88-1.82,1.78-2.82,2.61c0.77-0.56-7.53,6.62-5.41,4.92
						c-8.27,6.88-16.42,12.36-23.34,16.54c-3.47,2.08-6.66,3.78-9.32,5.34c-2.74,1.43-5.01,2.62-6.7,3.58
						c-2.16,1.15-3.96,1.9-5.44,2.59c-1.48,0.66-2.67,1.2-3.73,1.67c-2.1,0.97-3.73,1.53-6.06,2.5l2.15-0.9
						c-2.12,0.87-4.05,1.67-5.83,2.4c-1.78,0.74-3.46,1.3-5,1.89c-3.09,1.14-5.72,2.13-8.26,2.92c-2.54,0.81-4.91,1.66-7.5,2.42
						c-2.6,0.75-5.37,1.55-8.65,2.5c-6.58,1.71-7.55,2.27-19.48,4.82c1.93-0.43,1.67-0.4,0.37-0.12c-1.3,0.25-3.64,0.71-5.88,1.15
						c2.86-0.57,3.74-0.77-2.15,0.34c-0.82,0.19-2.1,0.42-3.31,0.63c-0.05,0-0.29,0.04-0.17,0.01c-7.51,1.29-6.2,1.09-2.71,0.51
						c-0.17,0.04,0.12,0,1.2-0.16c-1.95,0.31-4.29,0.69-6.71,1.08c-2.43,0.35-4.94,0.71-7.24,1.04c-4.6,0.59-8.35,1.01-8.83,1.02
						c-11.38,1.26-21.19,1.85-30.52,2.09c-9.33,0.27-18.2,0-27.7-0.69c-2.13-0.27,2.31,0.18,7.83,0.37
						c-4.5-0.15-8.99-0.59-13.48-0.94c0.03-0.02,0.53,0.01,1.33,0.07c0.8,0.06,1.89,0.15,3.11,0.24c1.22,0.1,2.56,0.21,3.86,0.32
						c1.3,0.1,2.56,0.14,3.6,0.19c-1-0.06-2.01-0.11-3.02-0.17c-1.01-0.09-2.02-0.18-3.04-0.26c-2.04-0.17-4.09-0.35-6.16-0.53
						c-4.12-0.51-8.34-0.89-12.6-1.61c-1.07-0.16-2.14-0.33-3.22-0.49c-1.08-0.15-2.16-0.33-3.24-0.56
						c-2.16-0.42-4.35-0.84-6.56-1.27c-2.2-0.47-4.41-1.04-6.65-1.56c-2.25-0.5-4.48-1.16-6.75-1.82l-3.78-1.01
						c-0.36-0.11-0.72-0.2-1.07-0.33c0.01,0.01-0.23-0.06-0.65-0.19c-0.41-0.13-1-0.31-1.66-0.52c-1.34-0.43-3.01-0.97-4.34-1.4
						c-2.5-0.92,0.2-0.02-8.51-3.35c-3.43-1.36-8.23-3.45-13.11-6.04c-4.86-2.61-9.74-5.78-13.43-8.88
						c4.05,3.25,2.72,2.23,0.95,0.86c-3.6-2.95-5.43-4.93-7.79-7.62l-0.21-0.41c0.56,0.72-1.46-1.54-3.36-4.46
						c-1.93-2.9-3.44-6.53-3.75-7.33c-0.44-1.25,0.19,0.44,1.13,2.51c0.96,2.07,2.42,4.39,2.74,4.88c-0.59-1-1.14-1.9-1.61-2.73
						c-0.43-0.86-0.81-1.63-1.16-2.32c-0.64-1.42-1.06-2.58-1.45-3.52c-0.3-0.97-0.54-1.73-0.75-2.39c-0.1-0.33-0.2-0.63-0.29-0.92
						c-0.07-0.3-0.13-0.58-0.2-0.86c-0.25-1.13-0.58-2.25-0.85-4.27c-0.08-0.5-0.16-1.06-0.26-1.68c-0.06-0.63-0.12-1.33-0.19-2.1
						c-0.04-0.39-0.07-0.8-0.11-1.23c-0.01-0.43-0.03-0.89-0.04-1.37c-0.02-0.96-0.09-2.01-0.04-3.18c0.36-9.95-0.22,1.8-0.08-2.96
						c0.46-8.81,2.27-17.28,4.89-27.06l-0.89,3.09c4.18-16.06,6.87-25.63,9.85-36.4c31.72-119.53,5.92-25.39,5.92-25.39
						c-6.45,23.48-11.31,41.27-16.34,60.24c-1.21,4.76-2.35,9.63-3.21,14.75c-0.86,5.12-1.43,10.5-1.26,16.2
						c0.02,0.71,0.05,1.43,0.07,2.15c0.07,0.72,0.13,1.44,0.2,2.17c0.09,1.46,0.4,2.92,0.62,4.42c0.61,2.95,1.37,5.99,2.64,8.94
						c0.55,1.51,1.34,2.95,2.08,4.43c0.85,1.42,1.69,2.89,2.71,4.27C498.82,677.7,501.15,680.39,503.84,682.88z"/>
				</g>
			</g>
		</g>
	</g>
</g>
<g>
	<g>
		<g>
			<g>
				<g>
					<path class="st1" d="M706.88,554.01l-0.09-2.77c-0.01,0.02-0.01,0.21,0.01,0.64C706.81,552.32,706.84,553,706.88,554.01z"/>
					<path class="st1" d="M1014.29,234.57c-0.12,0.18-0.27,0.38-0.38,0.54C1014.18,234.74,1014.26,234.61,1014.29,234.57z"/>
					<path class="st1" d="M697.62,446.61c0.01,0.06,0.01,0.1,0.02,0.15c0.03,0.23,0.06,0.51,0.08,0.71L697.62,446.61z"/>
					<path class="st1" d="M708.35,587.69c0.05-2.32,0.1-4.54,0.15-6.67c0.03-2.12,0-4.16,0.01-6.11c0.03-3.91-0.06-7.49-0.14-10.87
						c-0.05-3.38-0.19-6.55-0.32-9.61c-0.06-1.53-0.13-3.04-0.19-4.54c-0.09-1.5-0.17-2.98-0.26-4.47
						c-0.69-11.91-1.66-23.97-3.73-43.12c-1.93-18.27-4.37-37.7-6.25-55.54c-1.04-8.45-2.32-23.44-3.08-33.48l-0.2-3.9
						c-0.25-3.46-0.47-7.53-0.62-11.01l0.03,0.22c-0.24-5.18-0.43-11.02-0.45-13.59l0.02,0.22l-0.09-6.29l0.04,1.08
						c-0.06-9.03,0.11-18.35,0.75-26.52l-0.13,0.67c0.17-2.19,0.26-4.2,0.45-6.08c0.18-1.88,0.35-3.62,0.51-5.27
						c0.27-3.3,0.68-6.22,1.05-9.08c0.18-1.43,0.37-2.85,0.55-4.29c0.24-1.44,0.48-2.9,0.74-4.43c0.26-1.53,0.53-3.12,0.82-4.82
						c0.34-1.69,0.74-3.48,1.15-5.41l-0.02,0.22c0.88-4.92,2.07-9.24,3.08-13.34c0.53-2.04,1.17-3.99,1.74-5.93
						c0.29-0.97,0.58-1.93,0.87-2.88c0.28-0.96,0.58-1.91,0.93-2.84c0.66-1.88,1.33-3.77,2.01-5.69c0.35-0.96,0.65-1.94,1.05-2.91
						c0.39-0.97,0.79-1.94,1.19-2.94c0.8-1.99,1.63-4.05,2.5-6.21c0.96-2.12,1.96-4.33,3.03-6.68c-1.05,2.34,0.5-0.98,0.43-0.78
						l0.75-1.62l0.82-1.58c0.55-1.05,1.09-2.09,1.62-3.11c1.08-2.02,2-3.98,2.97-5.57c0.92-1.62,1.7-2.99,2.26-3.97
						c0.55-0.98,0.85-1.57,0.83-1.62c0.44-0.74,0.82-1.38,1.14-1.92c0.35-0.52,0.63-0.96,0.87-1.32c0.48-0.72,0.77-1.14,0.96-1.42
						c0.38-0.54,0.35-0.44,0.62-0.8c-0.02,0,0.17-0.32,0.51-0.86c0.35-0.55,0.84-1.32,1.42-2.23c1.13-1.86,2.87-4.13,4.43-6.33
						l-1.44,2.03c1.52-2.08,3-4.2,4.56-6.25l4.83-6.05l-2.01,2.28c2.59-3.19,2.93-3.58,3.28-3.91c0.34-0.34,0.65-0.65,3.24-3.61
						l-0.15,0c3.69-4.32,7-7.4,10.11-10.58c1.61-1.54,3.28-3.01,5-4.6c0.87-0.79,1.75-1.61,2.68-2.45c0.96-0.81,1.96-1.65,3.01-2.53
						c17.21-15,37.72-27.46,59.38-35.98c2.73-1.01,5.42-2.1,8.17-3.02c2.76-0.89,5.51-1.77,8.24-2.65c2.77-0.78,5.54-1.5,8.3-2.24
						c0.69-0.18,1.37-0.38,2.07-0.54l2.08-0.45c1.39-0.3,2.77-0.6,4.15-0.9c11.06-2.26,22.03-3.68,32.64-4.15
						c0.62-0.02,1.25-0.03,1.87,0c0.41,0.06,3.34-0.06,6.36-0.17c3.03-0.18,6.16-0.06,6.97,0l4.94,0.07
						c1.39,0.01,4.3,0.33,1.85,0.16c4.56,0.34,4.67,0.33,7.95,0.53c1.63,0.11,3.25,0.39,4.87,0.6c2.24,0.28,4.43,0.55,6.59,0.82
						c2.15,0.37,4.27,0.73,6.37,1.09c1.05,0.18,2.1,0.36,3.14,0.53c1.05,0.17,2.07,0.44,3.1,0.65c2.06,0.45,4.12,0.9,6.18,1.36
						c2.07,0.44,4.09,1.08,6.17,1.61c1.03,0.28,2.07,0.56,3.11,0.85c0.52,0.14,1.05,0.28,1.57,0.43c0.52,0.17,1.04,0.34,1.56,0.5
						c4.15,1.4,8.5,2.66,12.86,4.5c5.23,2.22,11.47,5.31,17.77,9.54c6.29,4.21,12.65,9.61,17.62,16.22
						c2.44,3.32,4.56,6.92,5.99,10.73c1.43,3.8,2.27,7.78,2.32,11.65c0.07,3.87-0.48,7.62-1.54,11c-1.05,3.39-2.49,6.43-4,9.1
						c-4.27,7.54-10.32,14.35-16.35,21.35c-3,3.52-6.11,7-9.25,10.49c-3.11,3.52-6.35,6.96-9.57,10.43
						c-12.92,13.83-26.44,27.23-39.41,39.44c-0.43,0.4-1.19,1.1-1.84,1.71c-0.32,0.3-0.62,0.58-0.84,0.79
						c-0.21,0.2-0.34,0.33-0.34,0.33c-4.01,3.66-8.02,7.34-12.12,10.9c-2.05,1.79-4.06,3.61-6.13,5.37l-6.21,5.28
						c0,0-7.52,6.41-17.66,14.47c-5.04,4.06-10.8,8.45-16.48,12.8c-2.87,2.13-5.73,4.25-8.48,6.29c-2.74,2.06-5.46,3.93-7.93,5.74
						c-4.95,3.61-9.25,6.52-12.02,8.5c-2.78,1.97-4.07,2.92-3.18,2.4c0.89-0.52,3.98-2.53,9.96-6.51c2.98-2,6.63-4.57,11.11-7.67
						c2.23-1.57,4.62-3.32,7.24-5.21c1.31-0.95,2.67-1.93,4.08-2.95c1.4-1.05,2.85-2.13,4.35-3.26l-0.62,0.51
						c14.25-10.78,22.96-17.94,32.25-26.02c0.79-0.58,3.62-2.92,6.58-5.53c2.96-2.62,6.11-5.43,7.7-6.8l-0.29,0.27
						c4.04-3.69,8.17-7.47,12.28-11.22c4.05-3.81,8.13-7.53,11.82-11.28c-0.28,0.29-0.41,0.49-2.14,2.18
						c2.73-2.69,5.96-5.87,8.56-8.42c2.56-2.59,4.51-4.55,4.75-4.72c6.44-6.49,13.95-14.47,20.78-21.96
						c3.41-3.75,6.6-7.42,9.47-10.65c2.83-3.28,5.26-6.18,7.15-8.43l-0.5,0.63c2.15-2.58,3.52-4.23,4.97-5.96
						c1.43-1.76,2.94-3.58,5.11-6.63c0.25-0.32,0.56-0.75,0.52-0.68c2.05-3.02,4.93-7.55,6.75-12.42c0.92-2.42,1.59-4.89,1.98-7.13
						c0.34-2.25,0.49-4.24,0.46-5.73l0.06-0.39c0.03-1.22-0.11-2.44-0.2-3.66c-0.19-1.21-0.33-2.42-0.63-3.61
						c-0.52-2.39-1.28-4.72-2.28-6.95l0.54,1.26l0.46,1.29c0.33,0.85,0.57,1.73,0.82,2.61c-0.34-0.88-1.06-3.57-2.73-7.04
						c-0.81-1.75-1.93-3.64-3.24-5.63c-1.33-1.97-2.93-3.97-4.72-5.92c-6.65-7.38-15.3-12.97-24.3-17.73
						c-4.38-2.13,3.9,1.8-2.64-1.4c-0.17-0.19,3.08,1.44,1.43,0.55c-3.22-1.57-5.9-2.78-8.83-3.94c-2.92-1.19-6.13-2.16-10.32-3.54
						l-0.32-0.18c-0.69-0.21-1.36-0.45-2.05-0.64c-0.69-0.18-1.37-0.37-2.04-0.55c-1.35-0.37-2.67-0.73-3.97-1.08
						c-1.3-0.35-2.57-0.73-3.83-1.05c-1.26-0.29-2.5-0.57-3.71-0.84c-2.42-0.53-4.7-1.12-6.88-1.51c-2.18-0.38-4.23-0.72-6.13-1.01
						c-2.92-0.53-4.89-0.73-6.38-0.93c-1.48-0.21-2.48-0.35-3.5-0.49c-1.02-0.14-2.05-0.31-3.6-0.47c-1.55-0.1-3.62-0.24-6.71-0.45
						c-1.6-0.15-3.19-0.33-4.8-0.37c-5.29-0.13-3.79-0.03-9.66-0.12c0.36-0.07-7.42,0.11-3.98-0.02c-1.66,0.03-3.33,0.06-5.01,0.09
						c-1.68,0.12-3.37,0.23-5.08,0.35c-1.71,0.12-3.44,0.25-5.19,0.38c-1.75,0.21-3.52,0.43-5.32,0.64c-1.8,0.24-3.65,0.4-5.51,0.7
						c-1.86,0.31-3.77,0.63-5.72,0.95c-0.97,0.16-1.96,0.32-2.96,0.49c-1,0.16-1.99,0.41-3.01,0.61c-2.03,0.42-4.11,0.86-6.26,1.3
						c-0.93,0.21-2.14,0.55-3.5,0.93c-1.36,0.37-2.85,0.77-4.31,1.17c-1.46,0.41-2.91,0.74-4.12,1.16c-1.22,0.4-2.25,0.74-2.92,0.98
						c-0.12,0.02-1.22,0.37-2.68,0.83c-1.45,0.47-3.26,0.99-4.71,1.57c-2.92,1.09-4.64,1.71-0.02-0.08c0.4-0.15,0.95-0.36,1.39-0.53
						c0.45-0.15,0.78-0.24,0.74-0.22l1.1-0.43c-9.47,3.17-17.01,6.37-25.83,10.82c2.64-1.28,6.12-3.01,3.81-1.81
						c-2.74,1.36-5.5,2.69-8.22,4.09c0.54-0.34,1.11-0.61,1.67-0.92c-1.03,0.48-2.03,1.04-3.02,1.6l-2.99,1.66
						c-1.98,1.13-4.02,2.16-5.93,3.41l1.64-0.93c-5.67,3.54-7.83,4.55-13.92,9.03c-2.77,2,5.26-3.54-0.52,0.52
						c-0.91,0.65-1.92,1.28-2.91,2.04c-0.99,0.75-2.02,1.54-3.1,2.36c-2.13,1.65-4.46,3.32-6.68,5.27
						c-1.13,0.95-2.27,1.91-3.42,2.88c-1.15,0.97-2.31,1.92-3.39,2.97c-2.19,2.05-4.37,4.08-6.46,6.03c0.8-0.7-1.34,1.5-3.53,3.78
						l-0.31,0.21c-2.1,2.19-3.35,3.47-4.11,4.37c-0.78,0.87-1.16,1.27-1.54,1.67c-0.38,0.4-0.76,0.79-1.54,1.66
						c-0.39,0.43-0.87,0.98-1.52,1.7c-0.32,0.36-0.67,0.77-1.08,1.23c-0.38,0.47-0.8,1-1.27,1.59l0.62-0.86l-1.87,2.58
						c-1.69,2.14-2.75,3.48-3.52,4.46c-0.77,0.98-1.21,1.61-1.71,2.25c-0.49,0.64-0.99,1.32-1.81,2.45
						c-0.41,0.57-0.89,1.25-1.5,2.09c-0.6,0.85-1.34,1.85-2.12,3.14c2.68-3.94,1.34-1.8-1.87,3.1l0.75-1.28
						c-1.77,2.72-2.36,3.63-3.53,5.45c1.05-1.62,0.4-0.96-1.98,3.18l1.55-2.81l-4.46,7.85c-0.88,1.5-1.78,3.29-2.75,5.11
						c-0.94,1.83-1.99,3.68-2.82,5.5c-1.67,3.62-3.13,6.78-3.78,8.06c0,0-0.1,0.21-0.25,0.6c-0.16,0.39-0.38,0.94-0.66,1.62
						c-0.55,1.35-1.29,3.19-2.07,5.13c-0.82,1.92-1.52,4.01-2.12,5.79c-0.61,1.79-1.11,3.29-1.37,4.11c0.46-1.43,0.01-0.2-0.47,1.11
						c-0.49,1.31-0.89,2.73-0.61,1.59c-0.54,1.88-1.58,5.57-2.66,9.34c-0.93,3.82-1.97,7.69-2.49,9.93l0.17-0.85
						c-1.84,8.29-3.13,15.44-4.02,22.42c-0.45,3.49-0.91,6.92-1.2,10.45c-0.17,1.76-0.34,3.54-0.52,5.35
						c-0.13,1.81-0.26,3.66-0.4,5.56c0.12-0.69-0.42,7.34-0.18,5.36c-0.6,15.73-0.58,28.71,0,34.37c0.12,3.58,0.19,5.7,0.27,7.38
						c0.07,1.69,0.12,2.95,0.19,4.79l-0.11-1.7c0.8,13.39,1.18,17.26,2.04,27.18c0.5,4.94,0.7,5.71,1.59,14.57
						c-0.35-2.86,0.02,0.76,0.37,4.07c-0.24-2.12-0.33-2.77,0.1,1.58c0.08,0.62,0.2,1.56,0.31,2.44c0,0.04,0.01,0.21,0,0.12
						c0.62,5.52,0.54,4.56,0.27,1.99c0.02,0.13,0.01-0.09-0.06-0.88c0.54,5.74,1.8,15.98,1.77,16.69
						c1.93,16.6,3.41,28.46,4.82,42.29c0.09,1.56-0.26-1.67-0.69-5.68l0.99,9.81c-0.02-0.02-0.07-0.38-0.14-0.96
						c-0.06-0.58-0.14-1.38-0.24-2.26c-0.18-1.78-0.39-3.92-0.54-5.43c1.06,11.69,2.45,24.09,3.12,37.84l0.23,2.85l0.03,0.82
						c0.01-0.01,0.03,0.17,0.05,0.49c0.02,0.32,0.05,0.76,0.08,1.27c0.06,1.02,0.13,2.3,0.18,3.32c-0.01,1.95-0.11-0.13,0.08,6.68
						c0.01,2.69,0.19,6.52,0.19,10.55c0.02,2.02,0.04,4.09,0.06,6.09c0,2.01-0.05,3.95-0.07,5.71c0.09-3.8,0.11-2.57,0.1-0.94
						c-0.09,3.41-0.14,5.37-0.26,8l-0.11,0.32c0.08-0.67-0.01,1.56-0.11,4.1c-0.01,0.39-0.03,0.79-0.04,1.17
						c-0.01,0.19-0.01,0.37-0.02,0.55c0,0.09-0.01,0.18-0.01,0.27c-0.01,0.03,0.01,0.13-0.01,0.09l-0.05-0.11
						c-0.28-0.57-0.5-1.02-0.58-1.18c-0.22-0.56,0.12,0.15,0.49,0.9l0.07,0.14c0.02,0.03,0.06,0.15,0.05,0.04l0.01-0.36
						c0.01-0.23,0.01-0.46,0.02-0.66c0.01-0.45,0.01-0.81,0.02-0.94c-0.02,0.46-0.04,0.87-0.06,1.24c-0.01,0.17-0.02,0.33-0.02,0.48
						l-0.01,0.11c-0.01-0.02-0.03-0.06-0.04-0.09l-0.09-0.19c-0.24-0.52-0.44-0.94-0.6-1.28c-0.63-1.36-0.99-2.13-1.35-2.9
						c-0.72-1.55-1.44-3.1-4.33-9.29c-3.14-6.59,0.48,1.24-1.07-1.89c-2.73-5.83-5.45-11.5-8.51-18.23l0.91,2.16
						c-5.16-10.95-8.21-17.51-11.57-24.94c-38.65-81.45-8.86-16.83-8.86-16.83c7.4,16.13,13.09,28.32,19.16,41.26
						c3.04,6.47,6.17,13.13,9.66,20.57c1.88,4,3.85,8.22,5.96,12.72c0.44,0.95,0.89,1.91,1.34,2.87l0.17,0.36l0.08,0.18l0.02,0.04
						l0-0.05l0-0.1l0.04-0.81c0.03-0.54,0.05-1.08,0.08-1.62c0.08-1.7,0.16-3.42,0.24-5.18
						C708.18,592.88,708.33,590.33,708.35,587.69z"/>
				</g>
			</g>
		</g>
	</g>
</g>
<g>
	<path class="st0" d="M748.95,829.76h9.37v8.74h-9.37V829.76z"/>
	<path class="st0" d="M782.83,833.15l-0.59-1.06v-1.18l0.59-1.06l28.73-28.73l1.06-0.63h1.22l1.06,0.63l0.59,1.06v1.18l-0.59,1.06
		l-28.73,28.73l-1.06,0.63h-1.22L782.83,833.15z"/>
</g>
<g>
	<path class="st0" d="M921.73,552.84v11.77h-3.8V529.3h17.11c0.56,0,1.01,0.17,1.35,0.51l7.72,7.66c0.39,0.39,0.58,0.81,0.58,1.29
		v4.12c0,0.56-0.17,1.01-0.51,1.35l-7.78,7.91c-0.47,0.47-0.92,0.71-1.35,0.71H921.73z M921.73,548.85h12.48l6.69-6.75v-2.51
		l-6.63-6.43h-12.54V548.85z"/>
	<path class="st0" d="M975.83,560.75h3.92v3.73h-21.61c-0.51,0-0.96-0.19-1.35-0.58l-3.73-3.99c-0.39-0.39-0.58-0.84-0.58-1.35
		v-3.86c0-0.51,0.19-0.96,0.58-1.35l3.8-3.92c0.34-0.34,0.79-0.51,1.35-0.51h13.77v-5.34l-2.64-2.7h-13.12v-3.8h13.89
		c0.51,0,0.96,0.19,1.35,0.58l3.79,3.86c0.39,0.39,0.58,0.81,0.58,1.29V560.75z M971.97,560.75v-8.11h-12.93l-2.77,2.83v2.38
		l2.7,2.89H971.97z"/>
	<path class="st0" d="M987.22,564.36v-39.05h3.86v11.84h10.04c0.51,0,0.96,0.19,1.35,0.58l7.66,7.78c0.39,0.39,0.58,0.84,0.58,1.35
		v7.91c0,0.51-0.19,0.96-0.58,1.35l-7.91,7.78c-0.3,0.3-0.75,0.45-1.35,0.45H987.22z M991.08,560.69h9.01l6.82-6.69v-6.37
		l-6.56-6.69h-9.26V560.69z"/>
	<path class="st0" d="M1037.39,559.79l0.84,0.9h3.15v3.86h-3.92c-0.51,0-0.97-0.19-1.35-0.58l-1.99-1.99
		c-0.39-0.39-0.58-0.84-0.58-1.35v-35.32h3.86V559.79z"/>
	<path class="st0" d="M1057.33,541.52l3.92-4.05c0.3-0.3,0.73-0.45,1.29-0.45h12.09c0.51,0,0.99,0.21,1.42,0.64l3.6,4.05
		c0.34,0.34,0.51,0.75,0.51,1.22v15.76c0,0.51-0.19,0.96-0.58,1.35l-3.73,3.8c-0.26,0.3-0.63,0.45-1.13,0.45h-0.22h-11.96
		c-0.45,0-0.88-0.15-1.29-0.45l-3.99-3.73c-0.39-0.34-0.58-0.81-0.58-1.42v-15.89C1056.69,542.38,1056.9,541.95,1057.33,541.52z
		 M1060.55,543.64v14.28l2.77,2.7h10.42l2.57-2.7v-14.28l-2.51-2.83h-10.49L1060.55,543.64z"/>
	<path class="st0" d="M1126.35,529.3h3.8v31.39h22.96v3.86h-26.76V529.3z"/>
	<path class="st0" d="M1181.22,562.3l-1.54,1.54c-0.39,0.39-0.84,0.58-1.35,0.58h-11.71c-0.51,0-0.94-0.17-1.29-0.51l-3.8-3.73
		c-0.39-0.39-0.58-0.84-0.58-1.35v-21.74h3.79v20.97l2.64,2.64h10.16l2.7-2.83v-20.78h3.86v21.55c0,0.09-0.09,0.34-0.26,0.77
		l1.16,1.29h3.15v3.73h-3.92c-0.64,0-1.09-0.17-1.35-0.51L1181.22,562.3z"/>
	<path class="st0" d="M1207.21,525.31h3.92v3.92h-3.92V525.31z M1207.21,537.08h3.92v27.47h-3.92V537.08z"/>
	<path class="st0" d="M1249.8,543.77l-2.83-2.83h-9.91l-1.87,1.93l17.95,14.22c0.47,0.41,0.71,0.88,0.71,1.42
		c0,0.6-0.19,1.09-0.58,1.48l-4.05,3.99c-0.39,0.39-0.84,0.58-1.35,0.58h-11.58c-0.51,0-0.96-0.19-1.35-0.58l-3.99-3.86
		c-0.39-0.39-0.58-0.86-0.58-1.42v-1.8h3.86v0.96l2.83,2.83h10.04l1.93-1.93l-17.88-14.15c-0.41-0.28-0.64-0.75-0.71-1.42v-0.22
		c0-0.49,0.17-0.91,0.51-1.25l3.86-4.05c0.39-0.39,0.86-0.58,1.42-0.58h11.51c0.51,0,0.96,0.19,1.35,0.58l3.99,3.92
		c0.39,0.39,0.58,0.84,0.58,1.35v2.06h-3.86V543.77z"/>
	<path class="st0" d="M990.05,639.55l6.5,7.01l-2.83,2.57l-6.95-7.59h-7.01c-0.51,0-0.96-0.19-1.35-0.58l-7.78-7.66
		c-0.39-0.39-0.58-0.84-0.58-1.35v-15.89c0-0.56,0.19-1.03,0.58-1.42l7.72-7.66c0.34-0.34,0.79-0.51,1.35-0.51h7.59
		c0.56,0,1.01,0.17,1.35,0.51l7.59,7.85c0.39,0.39,0.58,0.84,0.58,1.35v15.82c0,0.51-0.19,0.96-0.58,1.35L990.05,639.55z
		 M987.28,636.92l5.66-5.73v-14.22l-6.5-6.69h-5.92l-6.62,6.56v14.28l6.62,6.56h2.7l-1.61-2.57c-0.17-0.28-0.26-0.6-0.26-0.96v-4.18
		h3.86v3.67L987.28,636.92z"/>
	<path class="st0" d="M1024.91,639.49l-1.54,1.54c-0.39,0.39-0.84,0.58-1.35,0.58h-11.71c-0.51,0-0.94-0.17-1.29-0.51l-3.8-3.73
		c-0.39-0.39-0.58-0.84-0.58-1.35v-21.74h3.79v20.97l2.64,2.64h10.16l2.7-2.83v-20.78h3.86v21.55c0,0.09-0.09,0.34-0.26,0.77
		l1.16,1.29h3.15v3.73h-3.92c-0.64,0-1.09-0.17-1.35-0.51L1024.91,639.49z"/>
	<path class="st0" d="M1050.9,602.5h3.92v3.92h-3.92V602.5z M1050.9,614.27h3.92v27.47h-3.92V614.27z"/>
	<path class="st0" d="M1081,616.46l1.54-1.54c0.39-0.39,0.84-0.58,1.35-0.58h7.98c0.51,0,0.94,0.17,1.29,0.51l3.8,3.73
		c0.39,0.39,0.58,0.84,0.58,1.35v21.68h-3.67v-20.91l-2.77-2.51h-6.43l-2.7,2.7v20.78h-3.86v-21.55c0-0.09,0.08-0.34,0.26-0.77
		l-1.16-1.29h-3.15v-3.8h4.05c0.51,0,0.92,0.19,1.22,0.58L1081,616.46z M1075.86,604.56l-1.35-1.35l3.86-3.86
		c0.39-0.39,0.84-0.58,1.35-0.58h4.18c0.6,0,1.05,0.19,1.35,0.58l7.01,7.01h2.64l3.09-3.09l1.35,1.35l1.35,1.35l-3.67,3.67
		c-0.3,0.39-0.75,0.58-1.35,0.58h-4.18c-0.51,0-0.96-0.19-1.35-0.58l-7.01-7.01h-2.64l-3.28,3.28L1075.86,604.56z"/>
	<path class="st0" d="M1109.43,618.71l3.92-4.05c0.3-0.3,0.73-0.45,1.29-0.45h12.09c0.51,0,0.99,0.21,1.42,0.64l3.6,4.05
		c0.34,0.34,0.51,0.75,0.51,1.22v15.76c0,0.51-0.19,0.96-0.58,1.35l-3.73,3.8c-0.26,0.3-0.63,0.45-1.13,0.45h-0.22h-11.96
		c-0.45,0-0.88-0.15-1.29-0.45l-3.99-3.73c-0.39-0.34-0.58-0.81-0.58-1.42V620C1108.79,619.57,1109.01,619.14,1109.43,618.71z
		 M1112.65,620.83v14.28l2.77,2.7h10.42l2.57-2.7v-14.28l-2.51-2.83h-10.49L1112.65,620.83z"/>
	<path class="st0" d="M1150.48,616.46l1.54-1.54c0.39-0.39,0.84-0.58,1.35-0.58h7.98c0.51,0,0.94,0.17,1.29,0.51l3.8,3.73
		c0.39,0.39,0.58,0.84,0.58,1.35v21.68h-3.67v-20.91l-2.77-2.51h-6.43l-2.7,2.7v20.78h-3.86v-21.55c0-0.09,0.08-0.34,0.26-0.77
		l-1.16-1.29h-3.15v-3.8h4.05c0.51,0,0.92,0.19,1.22,0.58L1150.48,616.46z"/>
	<path class="st0" d="M1182.06,630.03v5.08l2.77,2.89h16.92v3.6h-17.69c-0.51,0-0.94-0.17-1.29-0.51l-3.99-3.86
		c-0.34-0.34-0.51-0.79-0.51-1.35v-15.57c0-0.43,0.21-0.86,0.64-1.29l3.92-4.05c0.47-0.47,0.94-0.71,1.42-0.71h11.64
		c0.43,0,0.88,0.24,1.35,0.71l3.79,3.99c0.39,0.39,0.58,0.82,0.58,1.29v9.78H1182.06z M1182.12,626.05h15.76v-5.02l-2.77-2.83
		h-10.16l-2.83,2.89V626.05z"/>
	<path class="st0" d="M1232.43,620.96l-2.83-2.83h-9.91l-1.87,1.93l17.95,14.22c0.47,0.41,0.71,0.88,0.71,1.42
		c0,0.6-0.19,1.09-0.58,1.48l-4.05,3.99c-0.39,0.39-0.84,0.58-1.35,0.58h-11.58c-0.51,0-0.96-0.19-1.35-0.58l-3.99-3.86
		c-0.39-0.39-0.58-0.86-0.58-1.42v-1.8h3.86v0.96l2.83,2.83h10.04l1.93-1.93l-17.88-14.15c-0.41-0.28-0.64-0.75-0.71-1.42v-0.22
		c0-0.49,0.17-0.91,0.51-1.25l3.86-4.05c0.39-0.39,0.86-0.58,1.42-0.58h11.51c0.51,0,0.96,0.19,1.35,0.58l3.99,3.92
		c0.39,0.39,0.58,0.84,0.58,1.35v2.06h-3.86V620.96z"/>
</g>
<g>
</g>
<g>
</g>
<g>
</g>
<g>
</g>
<g>
</g>
<g>
</g>
<g>
</g>
<g>
</g>
<g>
</g>
<g>
</g>
<g>
</g>
<g>
</g>
<g>
</g>
<g>
</g>
<g>
</g>
</svg>
